<svg width="325" height="197" viewBox="0 0 325 197" fill="none"
    xmlns="http://www.w3.org/2000/svg">
    <path d="M36.5202 30.6347L35.6248 36.993L41.9859 37.888C42.29 37.9306 42.5827 38.0326 42.8473 38.1883C43.112 38.3439 43.3435 38.5502 43.5285 38.7953C43.7134 39.0403 43.8482 39.3193 43.9252 39.6165C44.0023 39.9136 44.02 40.223 43.9774 40.527C43.9348 40.831 43.8329 41.1237 43.6772 41.3882C43.5215 41.6528 43.3151 41.8841 43.0699 42.069C42.8248 42.2538 42.5455 42.3886 42.2482 42.4656C41.9509 42.5426 41.6415 42.5604 41.3373 42.5178L34.9763 41.6227L34.0809 47.981C34.0402 48.2852 33.9393 48.5784 33.7842 48.8433C33.6292 49.1082 33.4229 49.3397 33.1775 49.5242C32.8116 49.8039 32.3705 49.968 31.9106 49.9958C31.4508 50.0235 30.9932 49.9136 30.5963 49.68C30.1993 49.4464 29.8808 49.0997 29.682 48.6843C29.4831 48.269 29.4127 47.8038 29.4798 47.3482L30.3831 40.9823L24.0143 40.0872C23.4001 40.0013 22.8452 39.6749 22.4717 39.18C22.0982 38.6851 21.9366 38.0622 22.0226 37.4482C22.1086 36.8343 22.4351 36.2796 22.9303 35.9063C23.4254 35.5329 24.0485 35.3715 24.6627 35.4574L31.0237 36.3525L31.927 29.9943C32.013 29.3854 32.3374 28.8357 32.8289 28.466C33.3204 28.0963 33.9388 27.9368 34.5479 28.0228C35.157 28.1087 35.7069 28.433 36.0768 28.9243C36.4467 29.4156 36.6062 30.0336 36.5202 30.6425V30.6347Z" fill="#2EE7E7"/>
    <path d="M295.809 17.4145L294.649 25.6545L302.889 26.8145C303.283 26.8696 303.662 27.0019 304.005 27.2036C304.348 27.4053 304.648 27.6726 304.888 27.9902C305.127 28.3078 305.302 28.6694 305.402 29.0545C305.501 29.4396 305.524 29.8406 305.469 30.2345C305.414 30.6285 305.282 31.0077 305.08 31.3506C304.879 31.6935 304.611 31.9932 304.294 32.2328C303.976 32.4724 303.614 32.647 303.229 32.7469C302.844 32.8467 302.443 32.8696 302.049 32.8145L293.809 31.6545L292.649 39.8945C292.597 40.2888 292.466 40.6687 292.265 41.0121C292.064 41.3554 291.797 41.6554 291.479 41.8945C291.005 42.2569 290.434 42.4697 289.838 42.5056C289.242 42.5416 288.65 42.3991 288.135 42.0963C287.621 41.7936 287.209 41.3444 286.951 40.8061C286.694 40.2678 286.602 39.6649 286.689 39.0745L287.859 30.8245L279.609 29.6645C278.814 29.5531 278.095 29.1302 277.611 28.4889C277.127 27.8475 276.918 27.0402 277.029 26.2445C277.141 25.4489 277.564 24.73 278.205 24.2462C278.846 23.7623 279.654 23.5531 280.449 23.6645L288.689 24.8245L289.859 16.5845C289.971 15.7955 290.391 15.0831 291.028 14.6039C291.664 14.1248 292.465 13.9181 293.254 14.0295C294.043 14.1409 294.756 14.5612 295.235 15.1978C295.714 15.8345 295.921 16.6355 295.809 17.4245V17.4145Z" fill="#E72E59"/>
    <path d="M90.9112 184.531L93.1912 169.461C93.2725 168.939 93.2141 168.404 93.0222 167.911C92.8304 167.419 92.5118 166.986 92.0987 166.656C91.6855 166.326 91.1926 166.111 90.6697 166.033C90.1468 165.955 89.6126 166.016 89.1211 166.211L74.9112 171.791C74.4187 171.983 73.9856 172.302 73.6558 172.715C73.326 173.128 73.1111 173.62 73.033 174.143C72.9548 174.666 73.0161 175.2 73.2107 175.691C73.4053 176.182 73.7263 176.614 74.1411 176.941L86.0711 186.451C86.4836 186.78 86.9756 186.995 87.4976 187.073C88.0196 187.152 88.553 187.091 89.044 186.897C89.5349 186.703 89.9661 186.384 90.294 185.97C90.6218 185.556 90.8347 185.063 90.9112 184.541V184.531Z" fill="#E72E59"/>
    <path d="M81.9612 175.471L86.4712 173.701L85.7512 178.491L81.9612 175.471Z" fill="white"/>
    <path d="M104.214 21.815C104.057 21.392 103.985 20.9422 104.003 20.4913C104.02 20.0405 104.126 19.5975 104.315 19.1878C104.504 18.7782 104.772 18.4098 105.103 18.1039C105.435 17.798 105.824 17.5606 106.247 17.4053L117.02 13.4183L108.178 6.08396C107.831 5.79625 107.544 5.44294 107.334 5.04419C107.124 4.64544 106.994 4.20913 106.953 3.76024C106.911 3.31135 106.959 2.85871 107.093 2.42824C107.226 1.99777 107.444 1.59791 107.732 1.2516C107.927 1.01978 108.15 0.812645 108.395 0.634721C109.012 0.195902 109.756 -0.0264276 110.513 0.00250541C111.269 0.0314384 111.995 0.309953 112.576 0.794605L125.977 11.9331C126.442 12.3165 126.798 12.816 127.009 13.381C127.219 13.9461 127.277 14.5566 127.176 15.1511C127.075 15.7456 126.819 16.3029 126.434 16.7669C126.049 17.2309 125.549 17.5851 124.983 17.7937L108.635 23.8485C108.211 24.0071 107.76 24.0803 107.308 24.0639C106.856 24.0474 106.412 23.9416 106.001 23.7526C105.59 23.5636 105.22 23.295 104.914 22.9625C104.607 22.6299 104.369 22.2399 104.214 21.815Z" fill="#F2B109"/>
    <path d="M329.467 99.4886C329.376 98.9695 329.149 98.4836 328.81 98.0798C328.472 97.676 328.032 97.3687 327.537 97.1886L311.047 91.1886C310.551 91.004 310.015 90.9537 309.493 91.0431C308.972 91.1324 308.483 91.3581 308.077 91.6972C307.671 92.0364 307.362 92.4769 307.181 92.9742C307 93.4715 306.954 94.0077 307.047 94.5286L310.047 111.829C310.136 112.348 310.36 112.836 310.697 113.241C311.034 113.647 311.472 113.956 311.967 114.139C312.468 114.328 313.01 114.379 313.538 114.287C314.065 114.196 314.559 113.965 314.967 113.619L328.447 102.349C328.856 102.006 329.166 101.56 329.346 101.057C329.525 100.554 329.567 100.013 329.467 99.4886Z" fill="#46D523"/>
    <path d="M315.097 105.639L313.867 98.5986L320.587 101.049L315.097 105.639Z" fill="white"/>
    <path d="M228.149 180.429L214.141 187.578C213.218 188.055 212.52 188.875 212.197 189.862C211.873 190.849 211.951 191.924 212.413 192.854L219.575 206.862C220.052 207.784 220.872 208.483 221.859 208.806C222.846 209.129 223.921 209.051 224.851 208.589L238.859 201.427C239.782 200.951 240.48 200.13 240.804 199.143C241.127 198.156 241.049 197.082 240.587 196.151L233.425 182.13C232.946 181.21 232.124 180.514 231.137 180.194C230.151 179.873 229.077 179.953 228.149 180.416V180.429Z" fill="#2EDCE7"/>
    <path d="M228.216 189.261L221.263 192.814L224.816 199.767L231.769 196.214L228.216 189.261Z" fill="white"/>
    <path d="M-12.0593 106.46C-19.1993 105.572 -25.7311 110.659 -26.6188 117.799C-27.3962 124.051 -23.4515 129.319 -19.9495 133.813C-16.7915 137.868 -13.8104 141.695 -14.3211 145.803C-14.4988 147.232 -15.8041 148.248 -17.233 148.071C-18.6619 147.893 -19.6785 146.588 -19.5009 145.159L-19.1789 142.569L-24.3586 141.925L-24.6807 144.515C-25.2133 148.799 -22.1614 152.718 -17.877 153.25C-13.5927 153.783 -9.67401 150.731 -9.14132 146.447C-8.36396 140.195 -12.3302 135.099 -15.8321 130.606C-18.9902 126.551 -21.9498 122.55 -21.4391 118.443C-20.9064 114.159 -16.9877 111.107 -12.7034 111.639C-8.419 112.172 -5.36705 116.091 -5.89974 120.375C-6.07772 121.807 -5.06338 123.109 -3.63186 123.287C-2.20034 123.465 -0.897946 122.451 -0.71996 121.019C0.167783 113.879 -4.91937 107.347 -12.0593 106.46V106.46Z" fill="#FABE2C"/>
    <path d="M48.5035 150.984L48.1815 153.574C48.0038 155.003 46.6985 156.019 45.2696 155.842C43.8406 155.664 42.824 154.359 43.0017 152.93C43.5124 148.822 47.34 145.841 51.3949 142.683C55.8905 139.184 61.0052 135.043 61.7826 128.79C62.6703 121.65 57.5832 115.119 50.4432 114.231C43.3032 113.343 36.7715 118.43 35.8837 125.57C35.7057 127.002 36.7201 128.304 38.1516 128.482C39.5831 128.66 40.8855 127.646 41.0635 126.214C41.5962 121.93 45.5148 118.878 49.7992 119.411C54.0836 119.943 57.1355 123.862 56.6028 128.146C56.0921 132.254 52.2431 135.407 48.1881 138.566C43.6925 142.065 38.5993 146.034 37.8219 152.286C37.2892 156.57 40.3412 160.489 44.6255 161.022C48.9099 161.554 52.8285 158.502 53.3612 154.218L53.6833 151.628L48.5035 150.984Z" fill="#FF9100"/>
    <path d="M39.7541 136.747L42.6736 113.265L19.192 110.345L-4.28967 107.426L-7.20924 130.907C-8.44729 140.865 -3.06972 150.438 5.76943 154.845L4.2842 166.79C-1.76854 167.26 -6.87536 171.936 -7.65302 178.191L-8.96253 188.723L9.16669 190.977L27.2959 193.231L28.6054 182.699C29.3831 176.444 25.5769 170.66 19.8235 168.722L21.3088 156.777C30.958 154.668 38.516 146.704 39.7541 136.747Z" fill="#FED843"/>
    <path d="M28.6053 182.699C29.383 176.444 25.5768 170.66 19.8234 168.722L21.3087 156.777C30.9579 154.668 38.5159 146.704 39.754 136.747L42.6736 113.265L19.1919 110.345L9.1666 190.977L27.2958 193.231L28.6053 182.699Z" fill="#FABE2C"/>
    <path d="M33.4631 185.933L10.1541 183.035L-13.1549 180.137L-15.1084 195.849L8.20055 198.747L31.5096 201.645L33.4631 185.933Z" fill="#FABE2C"/>
    <path d="M10.1543 183.035L33.4633 185.933L31.5098 201.645L8.20076 198.747L10.1543 183.035Z" fill="#FF9100"/>
</svg>
